<svg height="512" viewBox="0 0 64 64" width="512" xmlns="http://www.w3.org/2000/svg"><g id="flat"><path d="m22 12h12v6h-12z" fill="#f98c96"/><path d="m18 61h22c2.117 0 4-1.727 4.031-3l3.969-24a11.1 11.1 0 0 0 -4-10l-6-6a9.412 9.412 0 0 0 -4.989-2h-11.011s-8 6.716-8 15v26zm24.036-28.036a3.535 3.535 0 0 1 -5 0l-5-5a3.536 3.536 0 0 1 5-5l5 5a3.537 3.537 0 0 1 0 5z" fill="#5f79ba"/><path d="m19 8h18v4h-18z" fill="#db527d"/><path d="m26 3h4a3 3 0 0 1 3 3v2a0 0 0 0 1 0 0h-10a0 0 0 0 1 0 0v-2a3 3 0 0 1 3-3z" fill="#f98c96"/><path d="m18 61h20v-14l-11-13h-13v23a4.012 4.012 0 0 0 4 4z" fill="#87cee9"/><g fill="#f4f4e6"><path d="m17 37h9v2h-9z"/><path d="m17 41h7v2h-7z"/><path d="m33 56h2v2h-2z"/></g></g></svg>