<svg id="Capa_1" enable-background="new 0 0 510 510" height="512" viewBox="0 0 510 510" width="512" xmlns="http://www.w3.org/2000/svg"><g><g><path d="m264.249 63.498v55l-21.569 9.447-33.431-9.447v-55l27.502-10.745z" fill="#d8ecfe"/><path d="m290.029 151.598v-13.88c0-10.61-8.61-19.22-19.22-19.22h-68.12c-10.61 0-19.22 8.61-19.22 19.22v13.88l58.7 11.155z" fill="#1c3173"/><path d="m253.401 160.132-11.23 2.62-58.7-11.15v-13.88c0-10.61 8.61-19.22 19.22-19.22h25c-10.61 0-19.22 8.61-19.22 19.22v13.88z" fill="#162664"/><path d="m363.001 224.592v256.03c0 12.08-9.8 21.88-21.88 21.88h-208.74c-12.08 0-21.88-9.8-21.88-21.88v-256.03c0-40.31 32.68-72.99 72.99-72.99h106.52c40.31 0 72.99 32.68 72.99 72.99z" fill="#9dc6fb"/><path d="m388.231 80.057-38.629-11.795c-10.345-3.159-21.101-4.764-31.917-4.764h-136.356c-4.877 0-8.83-3.953-8.83-8.83v-38.34c0-4.877 3.953-8.83 8.83-8.83h136.356c10.816 0 21.572 1.606 31.917 4.764l43.723 13.35c3.668 1.12 6.174 4.505 6.174 8.341v37.763c0 5.86-5.663 10.052-11.268 8.341z" fill="#f9f6f6"/><path d="m362.999 254.048v146h-62.18c-11.78 0-21.32-9.55-21.32-21.32v-103.36c0-11.78 9.54-21.32 21.32-21.32z" fill="#91d7a5"/><path d="m157.381 502.502h-25c-12.08 0-21.88-9.8-21.88-21.88v-256.03c0-40.31 32.68-72.99 72.99-72.99h25c-40.31 0-72.99 32.68-72.99 72.99v256.03c0 12.08 9.8 21.88 21.88 21.88z" fill="#80b4fb"/><path d="m300.381 338.582-20.88 30.47h-169v-84h169z" fill="#91d7a5"/><path d="m197.501 16.332v38.34c0 4.87 3.95 8.83 8.83 8.83h-25c-4.88 0-8.83-3.96-8.83-8.83v-38.34c0-4.88 3.95-8.83 8.83-8.83h25c-4.88 0-8.83 3.95-8.83 8.83z" fill="#dddaec"/><path d="m110.501 285.052h25v84h-25z" fill="#75c79e"/></g><path d="m395.52 18.437-43.734-13.352c-11.078-3.374-22.549-5.085-34.096-5.085h-78.44c-4.142 0-7.5 3.358-7.5 7.5s3.358 7.5 7.5 7.5h78.44c10.065 0 20.065 1.492 29.72 4.433l43.725 13.349c.509.156.865.64.865 1.178v37.76c0 .408-.166.738-.493.98-.33.243-.698.305-1.086.187l-38.635-11.802c-11.078-3.374-22.549-5.085-34.096-5.085h-136.36c-.733 0-1.33-.597-1.33-1.33v-38.34c0-.733.597-1.33 1.33-1.33h22.92c4.142 0 7.5-3.358 7.5-7.5s-3.358-7.5-7.5-7.5h-22.92c-9.004 0-16.33 7.326-16.33 16.33v38.34c0 9.004 7.326 16.33 16.33 16.33h20.42v40.024c-14.299.498-25.78 12.278-25.78 26.696v6.743c-40.868 3.806-72.97 38.281-72.97 80.127v256.03c0 16.2 13.18 29.38 29.38 29.38h208.74c16.2 0 29.38-13.18 29.38-29.38v-110.78c0-4.142-3.358-7.5-7.5-7.5s-7.5 3.358-7.5 7.5v22.71h-54.68c-7.62 0-13.82-6.2-13.82-13.82v-103.36c0-7.621 6.2-13.82 13.82-13.82h54.68v73.3c0 4.142 3.358 7.5 7.5 7.5s7.5-3.358 7.5-7.5v-110.26c0-41.846-32.102-76.321-72.97-80.127v-6.743c0-14.418-11.481-26.199-25.78-26.696v-40.024h45.94c10.065 0 20.065 1.492 29.719 4.433l38.634 11.802c1.581.482 3.189.719 4.783.719 3.417 0 6.761-1.091 9.608-3.2 4.172-3.09 6.565-7.84 6.565-13.034v-37.76c.001-7.184-4.61-13.421-11.479-15.523zm-123.52 343.113h-154v-69h154zm69.12 133.45h-208.74c-7.929 0-14.38-6.451-14.38-14.38v-14.07h237.5v14.07c0 7.929-6.451 14.38-14.38 14.38zm-40.3-87.45h54.68v44h-237.5v-75h154v2.18c0 15.891 12.929 28.82 28.82 28.82zm0-161c-15.891 0-28.82 12.929-28.82 28.82v2.18h-154v-52.96c0-7.731 1.356-15.149 3.826-22.04h229.847c2.471 6.891 3.826 14.309 3.826 22.04v21.96zm43.16-59h-214.46c11.819-17.167 31.598-28.45 53.97-28.45h106.52c22.372 0 42.151 11.283 53.97 28.45zm-61.45-49.83v6.38h-91.56v-6.38c0-6.462 5.257-11.72 11.72-11.72h68.12c6.462 0 11.72 5.258 11.72 11.72zm-25.78-26.72h-40v-40h40z"/></g></svg>