<svg height="512" viewBox="0 0 128 128" width="512" xmlns="http://www.w3.org/2000/svg"><g><path d="m84.12 5.913a6 6 0 0 0 -5.712-4.163h-28.816a6 6 0 0 0 -5.712 4.163l-1.88 5.845h44z" fill="#586bd6"/><path d="m87.659 16.92-1.659-5.162h-44l-1.66 5.162q-2.011 6.253-3.75 12.58h54.819q-1.746-6.324-3.75-12.58z" fill="#979fef"/><path d="m91.409 29.5h-54.819a315.33 315.33 0 0 0 -11.39 83.949v6.8a6 6 0 0 0 6 6h65.6a6 6 0 0 0 6-6v-6.8a315.291 315.291 0 0 0 -11.391-83.949z" fill="#5a5a5a"/><path d="m35.2 116.247v-2.8a305.33 305.33 0 0 1 9.1-73.947h39.4a305.33 305.33 0 0 1 9.1 73.949v2.8z" fill="#ede9e8"/><path d="m67.18 19.219h-6.36a7.462 7.462 0 0 1 -7.461-7.461h21.282a7.462 7.462 0 0 1 -7.461 7.461z" fill="#737ee6"/><g><circle cx="64" cy="79.103" fill="#ffda2d" r="5.429"/><g fill="#979fef"><path d="m58.754 80.48a5.392 5.392 0 0 1 1.807-5.58l-.847-.482a36.428 36.428 0 0 0 -6.766-2.988 3.879 3.879 0 0 0 -2.4 7.378 36.4 36.4 0 0 0 7.23 1.56z"/><path d="m58.946 81.074-.723.659a36.406 36.406 0 0 0 -4.932 5.511 3.879 3.879 0 0 0 .858 5.418 3.879 3.879 0 0 0 5.418-.858 36.425 36.425 0 0 0 3.717-6.394l.405-.894a5.42 5.42 0 0 1 -4.743-3.442z"/><path d="m61.07 74.538a5.405 5.405 0 0 1 5.86 0l.2-.957a36.455 36.455 0 0 0 .751-7.358 3.879 3.879 0 0 0 -7.758 0 36.455 36.455 0 0 0 .751 7.358z"/><path d="m79.939 73.924a3.878 3.878 0 0 0 -4.887-2.49 36.428 36.428 0 0 0 -6.766 2.988l-.847.482a5.392 5.392 0 0 1 1.807 5.576l.973-.108a36.4 36.4 0 0 0 7.23-1.56 3.879 3.879 0 0 0 2.49-4.888z"/><path d="m74.709 87.244a36.406 36.406 0 0 0 -4.932-5.511l-.723-.659a5.422 5.422 0 0 1 -4.743 3.442l.4.894a36.43 36.43 0 0 0 3.722 6.39 3.879 3.879 0 0 0 5.418.858 3.879 3.879 0 0 0 .858-5.418z"/></g></g></g></svg>