<svg id="Capa_1" enable-background="new 0 0 512 512" height="512" viewBox="0 0 512 512" width="512" xmlns="http://www.w3.org/2000/svg"><g><path d="m511.946 256c0 141.385-114.603 256-255.973 256s-255.973-114.615-255.973-256 114.603-256 255.973-256 255.973 114.615 255.973 256z" fill="#5f55af"/><path d="m461.057 256c0 113.223-91.795 205.008-205.03 205.008s-205.03-91.785-205.03-205.008 91.795-205.008 205.03-205.008 205.03 91.785 205.03 205.008z" fill="#453d83"/><path d="m147.487 185.111-44.027 23.144c-3.668 1.928-7.954-1.187-7.254-5.271l8.408-49.017c.278-1.622-.26-3.278-1.438-4.426l-35.616-34.713c-2.968-2.893-1.33-7.933 2.771-8.529l49.222-7.152c1.628-.237 3.036-1.26 3.764-2.735l22.014-44.6c1.834-3.716 7.132-3.716 8.966 0l22.014 44.6c.728 1.475 2.136 2.498 3.764 2.735l49.222 7.152c4.101.596 5.738 5.636 2.771 8.529l-35.616 34.713c-1.179 1.149-1.717 2.804-1.438 4.426l8.408 49.017c.701 4.084-3.586 7.199-7.254 5.271l-44.028-23.144c-1.457-.766-3.197-.766-4.653 0zm137.734 162.604c2.968-2.893 1.33-7.933-2.771-8.529l-49.222-7.152c-1.628-.237-3.036-1.259-3.764-2.735l-22.014-44.6c-1.834-3.716-7.132-3.716-8.966 0l-22.014 44.6c-.728 1.476-2.136 2.498-3.764 2.735l-49.222 7.152c-4.101.596-5.738 5.636-2.771 8.529l35.616 34.713c1.179 1.149 1.716 2.804 1.438 4.426l-8.408 49.017c-.701 4.084 3.586 7.199 7.254 5.271l44.028-23.144c1.456-.766 3.196-.766 4.652 0l44.028 23.144c3.668 1.928 7.954-1.187 7.254-5.271l-8.408-49.017c-.278-1.622.26-3.278 1.438-4.426z" fill="#ffe7c0"/><path d="m470.532 154.01c-17.329-16.871-40.127-26.161-64.193-26.161h-47.93l-.976.009-.184.007c-6.016.164-11.909 1.629-17.267 4.235l-18.663 17.9c-2.972 5.504-4.668 11.604-4.966 17.992l-.038 1.24-.006 172.83c0 23.212 18.886 42.096 42.1 42.096 23.215 0 42.1-18.884 42.1-42.096v-32.87c2.204-.006 4.184-.009 5.83-.009 24.067 0 46.865-9.291 64.193-26.161 17.692-17.223 27.435-40.132 27.435-64.506-.001-24.374-9.744-47.283-27.435-64.506zm-64.194 70.982c-1.631 0-3.563.003-5.7.009-.007-2.469-.011-4.678-.011-6.485 0-1.645-.003-3.874-.007-6.476h5.719c3.818 0 7.428 3.147 7.428 6.476s-3.611 6.476-7.429 6.476zm-187.905-41.46-56.303 169.463c-6.289 18.499-23.659 31.029-43.218 31.163l-.315.001c-19.418 0-36.832-12.293-43.332-30.589l-58.954-169.821c-7.612-21.928 4.036-45.96 25.967-53.572 4.465-1.55 9.11-2.335 13.806-2.335 17.912 0 33.895 11.373 39.771 28.299l21.948 63.224 20.724-62.375c5.729-17.245 21.783-28.832 39.948-28.832 4.506 0 8.973.725 13.276 2.154 22.032 7.318 34.001 31.193 26.682 53.22zm86.835-13.587v172.118c0 23.212-18.886 42.096-42.1 42.096s-42.1-18.884-42.1-42.096v-172.118c0-23.212 18.886-42.096 42.1-42.096s42.1 18.884 42.1 42.096z" fill="#ff2ea6"/><path d="m328.825 172.132 19.606 39.723c1.457 2.951 4.272 4.997 7.529 5.47l43.838 6.369c8.202 1.192 11.477 11.273 5.541 17.058l-31.719 30.915c-2.357 2.297-3.433 5.608-2.876 8.852l7.488 43.655c1.401 8.169-7.172 14.399-14.507 10.543l-39.214-20.614c-2.913-1.531-6.392-1.531-9.304 0l-39.214 20.614c-7.336 3.856-15.908-2.374-14.507-10.543l7.488-43.655c.557-3.244-.519-6.555-2.876-8.852l-31.719-30.915c-5.936-5.785-2.661-15.866 5.541-17.058l43.838-6.369c3.257-.473 6.072-2.519 7.529-5.47l19.606-39.723c3.668-7.432 14.264-7.432 17.932 0z" fill="#ff50b5"/><path d="m427.8 218.516c0 11.116-9.828 20.508-21.461 20.508-4.778 0-12.147.027-19.68.062-.036-7.922-.065-15.703-.065-20.57 0-4.195-.018-12.191-.038-20.508h19.783c11.633.001 21.461 9.392 21.461 20.508zm84.2 0c0 28.194-11.25 54.673-31.678 74.56-17.985 17.509-41.091 27.931-65.78 29.826v18.325c0 30.913-24.645 56.65-55.56 56.96-20.294.204-38.171-10.419-48.194-26.435-10.024 16.016-27.899 26.638-48.194 26.435-30.915-.31-55.56-26.047-55.56-56.96 0-14.481-20.304-17.765-24.87-4.022l-6.627 19.946-.115.343c-8.216 24.167-30.888 40.521-56.415 40.696l-.411.002c-25.344 0-48.072-16.044-56.569-39.962l-.09-.256-.016-.045-.015-.044-58.557-168.684c-10.157-29.26 4.721-61.745 33.903-72.132 6.078-2.163 12.417-3.26 18.833-3.26 23.883.001 45.193 15.163 53.028 37.73l8.399 24.194 7.697-23.167c7.638-22.993 29.045-38.441 53.266-38.441 6.012 0 11.967.965 17.702 2.87 9.828 3.265 18.154 9 24.518 16.289 10.301-11.916 25.521-19.467 42.473-19.467 20.048 0 37.674 10.562 47.606 26.414.5-.797 1.887-3.019 3.626-5.449 2.607-3.642 14.18-12.516 17.333-14.217 7.712-4.16 16.356-6.498 25.198-6.729l.114-.004.141-.002c.178-.004.354-.007.513-.009.236-.003.473-.005.71-.005h47.93c27.745 0 54.019 10.704 73.984 30.139 20.427 19.889 31.677 46.368 31.677 74.561zm-324.671-74.888c-2.936-.975-5.92-1.438-8.853-1.438-11.763 0-22.72 7.451-26.631 19.224l-15.584 46.905c-5.894 17.74-30.93 17.908-37.061.248l-16.602-47.823c-4.026-11.596-14.894-18.869-26.514-18.869-3.053 0-6.158.502-9.204 1.559-14.644 5.082-22.394 21.073-17.311 35.715l58.853 169.534c.022.064.045.128.067.191 4.525 12.737 16.606 21.255 30.108 21.255.073 0 .146-.001.219-.001 13.59-.093 25.659-8.799 30.033-21.665.021-.062.042-.123.062-.185l56.204-169.168c4.888-14.711-3.076-30.595-17.786-35.482zm103.906 26.317c0-15.499-12.566-28.064-28.067-28.064s-28.067 12.565-28.067 28.064v172.118c0 15.499 12.566 28.064 28.067 28.064s28.067-12.565 28.067-28.064zm192.698 48.571c0-20.555-8.236-39.893-23.191-54.452-14.694-14.305-34.015-22.183-54.404-22.183h-47.93c-.117 0-.235.001-.352.002-.104.001-.208.003-.312.006-.012 0-.024 0-.035.001-6.233.152-11.961 2.337-16.549 5.916-.996 2.201-6.512 3.111-10.818 23.205v171.053c0 15.499 12.566 28.064 28.067 28.064s28.067-12.565 28.067-28.064v-46.848c7.639-.036 15.128-.063 19.863-.063 20.389 0 39.71-7.878 54.404-22.183 14.955-14.56 23.19-33.899 23.19-54.454z" fill="#ff9f22"/><path d="m511.892 218.516c0 16.349-3.783 32.121-10.945 46.366-2.371 4.716-7.232 7.666-12.512 7.666h-.021c-10.469 0-17.193-11.019-12.508-20.38 5.183-10.358 7.92-21.803 7.92-33.652 0-20.555-8.235-39.893-23.191-54.452-14.694-14.305-34.015-22.183-54.404-22.183h-47.931c-.117 0-.235.001-.352.002-.104.001-.208.003-.312.006-.012 0-.024 0-.035.001-6.233.152-11.961 2.337-16.549 5.916-.996 2.201-6.512 3.111-10.818 23.205v81.987c0 10.798-8.754 19.552-19.553 19.552-10.799 0-19.554-8.754-19.554-19.552v-83.052c0-15.761-12.995-28.488-28.856-28.053-15.287.419-27.278 13.345-27.278 28.637v76.443c0 14.125-11.452 25.576-25.579 25.576-17.448 0-29.775-17.083-24.274-33.64l19.676-59.221c4.897-14.739-2.987-31.306-17.756-36.113-2.884-.939-5.812-1.385-8.691-1.385-11.763 0-22.72 7.451-26.631 19.224l-20.723 62.375c-4.226 12.721-22.179 12.841-26.575.177l-21.95-63.224c-4.026-11.596-14.894-18.869-26.514-18.869-2.898 0-5.843.452-8.741 1.403-14.923 4.895-22.719 21.627-17.569 36.463l25.75 74.176c3.165 9.117-3.606 18.633-13.257 18.633-5.977 0-11.298-3.785-13.257-9.431l-25.66-73.917c-10.158-29.26 4.721-61.745 33.903-72.132 6.078-2.163 12.417-3.26 18.833-3.26 23.883.001 45.193 15.163 53.028 37.73l8.399 24.194 7.697-23.167c7.639-22.993 29.045-38.441 53.266-38.441 6.012 0 11.967.965 17.702 2.87 9.828 3.265 18.154 9 24.518 16.289 10.301-11.916 25.521-19.467 42.472-19.467 20.048 0 37.674 10.562 47.606 26.414.5-.797 1.887-3.019 3.626-5.449 2.607-3.642 14.18-12.516 17.333-14.217 7.712-4.16 16.356-6.498 25.198-6.729l.114-.004.141-.002c.178-.004.354-.007.513-.009.236-.003.473-.005.71-.005h47.93c27.745 0 54.019 10.704 73.984 30.139 20.426 19.89 31.677 46.369 31.677 74.562zm-105.662-20.507h-19.783c.021 8.317.038 16.313.038 20.508 0 4.867.028 12.648.065 20.57 7.533-.035 14.901-.062 19.68-.062 11.633 0 21.461-9.392 21.461-20.508s-9.828-20.508-21.461-20.508z" fill="#ffcd71"/><path d="m307.093 184.009c-2.229 0-4.466-.531-6.514-1.608l-31.196-16.399-31.195 16.398c-2.049 1.077-4.286 1.608-6.514 1.608-2.903 0-5.792-.902-8.231-2.674-4.311-3.132-6.471-8.44-5.57-13.693l5.958-34.733-25.238-24.598c-3.817-3.72-5.19-9.283-3.543-14.352 1.647-5.068 6.029-8.762 11.303-9.528l34.877-5.067 15.598-31.601c2.359-4.779 7.226-7.804 12.556-7.804s10.197 3.025 12.556 7.804l15.597 31.601 34.878 5.067c5.274.766 9.655 4.46 11.302 9.528 1.648 5.068.273 10.632-3.542 14.352l-25.237 24.598 5.958 34.733c.9 5.252-1.259 10.561-5.571 13.693-2.441 1.773-5.33 2.675-8.232 2.675z" fill="#ff2ea6"/><path d="m269.383 53.959 18.855 38.201 42.162 6.126-30.509 29.735 7.202 41.987-37.711-19.824-37.711 19.824 7.202-41.987-30.509-29.735 42.162-6.126zm0-28c-10.659 0-20.394 6.051-25.111 15.608l-12.34 25.001-27.593 4.009c-10.548 1.533-19.312 8.92-22.606 19.057-3.294 10.136-.547 21.263 7.086 28.703l19.966 19.46-4.713 27.478c-1.802 10.505 2.517 21.121 11.14 27.386 4.879 3.544 10.656 5.348 16.463 5.348 4.457 0 8.931-1.063 13.028-3.216l24.68-12.974 24.68 12.974c4.097 2.153 8.572 3.216 13.028 3.216 5.807 0 11.584-1.803 16.463-5.348 8.623-6.265 12.942-16.881 11.14-27.386l-4.713-27.478 19.966-19.46c7.633-7.439 10.38-18.566 7.086-28.703-3.294-10.136-12.057-17.524-22.606-19.057l-27.593-4.009-12.34-25.001c-4.717-9.557-14.452-15.608-25.111-15.608z" fill="#ffc14f"/><path d="m271.5 44.376c2.473-11.191 17.712-13.27 22.879-3.039.039.077.077.154.115.231l12.34 25.001 27.593 4.009c.029.004.059.009.09.013 10.039 1.489 13.338 14.341 5.277 20.509-6.007 4.596-13.614 6.574-21.098 5.487l-30.457-4.425-14.512-29.402c-2.812-5.697-3.597-12.181-2.227-18.384z" fill="#ffd993"/><path d="m90.948 270.385c-1.524.529-3.077.78-4.603.78-5.811 0-11.244-3.635-13.257-9.433l-.289-.834c-2.542-7.321 1.332-15.316 8.654-17.858 7.322-2.541 15.317 1.332 17.86 8.654l.29.834c2.541 7.319-1.333 15.315-8.655 17.857zm172.216-28.827c-7.75 0-14.033 6.282-14.033 14.032v.827c0 7.75 6.283 14.032 14.033 14.032s14.033-6.282 14.033-14.032v-.827c0-7.75-6.283-14.032-14.033-14.032zm174.215-39.613c2.595 4.518 7.321 7.047 12.182 7.047 2.37 0 4.773-.601 6.976-1.866 6.721-3.859 9.04-12.436 5.181-19.156-.206-.358-.414-.713-.627-1.066-3.991-6.641-12.613-8.79-19.257-4.799-6.643 3.992-8.792 12.613-4.799 19.256.116.193.232.389.344.584z" fill="#ffc7e7"/><path d="m148.494 305.012-.279.838c-1.957 5.884-7.436 9.607-13.314 9.607-1.468 0-2.961-.232-4.431-.721-7.354-2.446-11.334-10.39-8.887-17.743l.279-.838c2.446-7.353 10.388-11.331 17.745-8.886 7.355 2.446 11.334 10.39 8.887 17.743zm20.064-104.88c-7.356-2.445-15.299 1.533-17.745 8.886l-.279.838c-2.446 7.354 1.533 15.297 8.887 17.743 1.47.489 2.962.721 4.431.721 5.879 0 11.357-3.724 13.314-9.607l.279-.838c2.446-7.354-1.533-15.297-8.887-17.743zm-14.485 43.566c-7.355-2.441-15.298 1.542-17.739 8.898l-.278.838c-2.441 7.355 1.543 15.296 8.899 17.737 1.467.487 2.957.718 4.422.718 5.882 0 11.362-3.728 13.317-9.616l.278-.838c2.441-7.355-1.543-15.297-8.899-17.737zm109.091 83.865c-7.75 0-14.033 6.282-14.033 14.032v.468c0 7.75 6.283 14.032 14.033 14.032s14.033-6.282 14.033-14.032v-.468c0-7.75-6.283-14.032-14.033-14.032zm-80.262-170.618c-7.356-2.441-15.299 1.537-17.743 8.891l-.148.444c-2.444 7.354 1.537 15.297 8.892 17.741 1.469.488 2.961.719 4.428.719 5.88 0 11.359-3.725 13.315-9.61l.148-.444c2.444-7.354-1.537-15.297-8.892-17.741zm-62.881 171.17c-7.144-1.271-14.169 3.158-16.02 10.299-1.945 7.502 2.561 15.159 10.063 17.104 1.285.333 2.609.524 3.936.567.156.005.311.007.465.007 7.539 0 13.77-5.985 14.018-13.575.241-7.372-5.252-13.602-12.462-14.402zm-50.532-162.334-.153-.442c-2.544-7.32-10.54-11.193-17.862-8.649-7.321 2.543-11.194 10.54-8.65 17.86l.153.442c2.014 5.796 7.447 9.43 13.255 9.43 1.528 0 3.082-.251 4.607-.781 7.321-2.543 11.194-10.54 8.65-17.86zm15.058 43.374-.29-.834c-2.542-7.321-10.538-11.194-17.86-8.653-7.322 2.542-11.196 10.537-8.654 17.858l.29.834c2.013 5.798 7.446 9.433 13.256 9.433 1.527 0 3.08-.251 4.603-.78 7.322-2.541 11.196-10.537 8.655-17.858zm30.111 86.743-.289-.834c-2.542-7.321-10.537-11.193-17.86-8.654-7.322 2.542-11.196 10.538-8.654 17.858l.29.834c2.014 5.798 7.446 9.433 13.257 9.433 1.527 0 3.08-.251 4.603-.78 7.321-2.541 11.196-10.537 8.653-17.857zm148.506-11.338c-7.75 0-14.033 6.282-14.033 14.032v.827c0 7.75 6.283 14.032 14.033 14.032s14.033-6.282 14.033-14.032v-.827c0-7.749-6.283-14.032-14.033-14.032zm95.24-86.004c-7.75 0-14.033 6.282-14.033 14.032v.827c0 7.75 6.283 14.032 14.033 14.032s14.033-6.282 14.033-14.032v-.827c0-7.75-6.283-14.032-14.033-14.032zm48.962-14.564c.233.007.465.016.697.027.233.011.463.017.693.017 7.437 0 13.641-5.842 14.006-13.349.377-7.74-5.593-14.321-13.334-14.698-.406-.02-.813-.035-1.22-.048-7.741-.257-14.215 5.858-14.448 13.605-.232 7.745 5.86 14.213 13.606 14.446zm-48.498-28.079h-.464c-.059 0-.118 0-.177.001-.05 0-.1.001-.15.003-.008 0-.016 0-.023 0-7.317.179-13.245 5.958-13.659 13.214-.001.012-.001.025-.002.037-.002.037-.004.074-.006.112-.001.03-.003.06-.004.09-.001.022-.002.043-.003.065-.001.042-.003.083-.004.125 0 .014-.001.029-.001.043-.001.05-.002.099-.003.149v.021c-.001.054-.001.108-.001.162v.01.468c0 7.75 6.283 14.032 14.033 14.032 4.009 0 7.626-1.681 10.183-4.377 2.659-2.553 4.314-6.145 4.314-10.122 0-7.751-6.283-14.033-14.033-14.033zm97.783 73.55c-6.754-3.801-15.311-1.41-19.113 5.343-.116.205-.234.409-.353.612-3.924 6.683-1.687 15.281 4.997 19.205 2.232 1.31 4.677 1.933 7.092 1.933 4.814 0 9.502-2.479 12.115-6.93.205-.349.407-.699.605-1.052 3.803-6.752 1.411-15.309-5.343-19.111zm-48.272 23.534c-.238.014-.478.025-.717.035-7.744.311-13.77 6.84-13.46 14.583.303 7.552 6.521 13.47 14.012 13.47.19 0 .381-.004.573-.011.398-.016.798-.035 1.198-.058 7.738-.444 13.651-7.075 13.207-14.812-.443-7.738-7.092-13.644-14.813-13.207zm-145.215-54.441c-7.75 0-14.033 6.282-14.033 14.032v.827c0 7.75 6.283 14.032 14.033 14.032s14.033-6.282 14.033-14.032v-.827c0-7.75-6.283-14.032-14.033-14.032zm95.24 129.007c-7.75 0-14.033 6.282-14.033 14.032v.468c0 7.75 6.283 14.032 14.033 14.032s14.033-6.282 14.033-14.032v-.468c0-7.75-6.283-14.032-14.033-14.032zm0-86.005c-7.75 0-14.033 6.282-14.033 14.032v.827c0 7.75 6.283 14.032 14.033 14.032s14.033-6.282 14.033-14.032v-.827c0-7.75-6.283-14.032-14.033-14.032zm0 43.002c-7.75 0-14.033 6.282-14.033 14.032v.827c0 7.75 6.283 14.032 14.033 14.032s14.033-6.282 14.033-14.032v-.827c0-7.749-6.283-14.032-14.033-14.032zm-74.843-167.808v-.884c0-8.282-6.715-14.997-14.998-14.997s-14.998 6.714-14.998 14.997v.884c0 8.282 6.715 14.997 14.998 14.997 8.283-.001 14.998-6.715 14.998-14.997z" fill="#ff94d2"/><path d="m366.656 145.699-15.116 8.266c-.336.184-.611.459-.795.795l-8.268 15.116c-.759 1.387-2.75 1.387-3.509 0l-8.268-15.116c-.184-.336-.459-.611-.795-.795l-15.116-8.266c-1.387-.759-1.387-2.751 0-3.51l15.116-8.267c.336-.184.611-.459.795-.795l8.268-15.116c.759-1.387 2.75-1.387 3.509 0l8.268 15.116c.184.336.459.611.795.795l15.116 8.267c1.387.759 1.387 2.752 0 3.51zm-204.119 218.245-4.732 8.651c-.184.336-.459.611-.795.795l-8.651 4.731c-1.387.759-1.387 2.751 0 3.51l8.651 4.731c.336.184.611.459.795.795l4.732 8.651c.759 1.387 2.75 1.387 3.509 0l4.732-8.651c.184-.336.459-.611.795-.795l8.651-4.731c1.387-.759 1.387-2.751 0-3.51l-8.651-4.731c-.336-.184-.611-.459-.795-.795l-4.732-8.651c-.759-1.387-2.75-1.387-3.509 0zm-71.627-135.335-4.732 8.651c-.184.336-.459.611-.795.795l-8.651 4.731c-1.387.759-1.387 2.751 0 3.51l8.651 4.731c.336.184.611.459.795.795l4.732 8.651c.759 1.387 2.75 1.387 3.509 0l4.732-8.651c.184-.336.459-.611.795-.795l8.651-4.731c1.387-.759 1.387-2.751 0-3.51l-8.651-4.731c-.336-.184-.611-.459-.795-.795l-4.732-8.651c-.759-1.386-2.75-1.386-3.509 0zm398.302-22.024-4.732-8.651c-.759-1.387-2.75-1.387-3.509 0l-4.732 8.651c-.184.336-.459.611-.795.795l-8.651 4.731c-1.387.759-1.387 2.751 0 3.51l8.651 4.731c.336.184.611.459.795.795l4.732 8.651c.759 1.387 2.75 1.387 3.509 0l4.732-8.651c.184-.336.459-.611.795-.795l8.651-4.731c1.387-.759 1.387-2.751 0-3.51l-8.651-4.731c-.336-.184-.612-.459-.795-.795zm-260.977 48.648-4.732 8.651c-.184.336-.459.611-.795.795l-8.651 4.731c-1.387.759-1.387 2.751 0 3.51l8.651 4.731c.336.184.611.459.795.795l4.732 8.651c.759 1.387 2.75 1.387 3.509 0l4.732-8.651c.184-.336.459-.611.795-.795l8.651-4.731c1.387-.759 1.387-2.751 0-3.51l-8.651-4.731c-.336-.184-.611-.459-.795-.795l-4.732-8.651c-.759-1.387-2.751-1.387-3.509 0zm151.489 119.44-4.732 8.651c-.184.336-.459.611-.795.795l-8.651 4.731c-1.387.759-1.387 2.751 0 3.51l8.651 4.731c.336.184.611.459.795.795l4.732 8.651c.759 1.387 2.75 1.387 3.509 0l4.732-8.651c.184-.336.459-.611.795-.795l8.651-4.731c1.387-.759 1.387-2.751 0-3.51l-8.651-4.731c-.336-.184-.611-.459-.795-.795l-4.732-8.651c-.759-1.387-2.75-1.387-3.509 0z" fill="#fff5f5"/></g></svg>