<svg height="512" viewBox="0 0 58 58" width="512" xmlns="http://www.w3.org/2000/svg"><g id="Page-1" fill="none" fill-rule="evenodd"><g id="027---Washing-Powder" fill-rule="nonzero"><path id="Shape" d="m42 37 .7-4.218c.1909019-1.1439018.8151218-2.1703012 1.743-2.866 1.5295922-1.1478755 3.616909-1.2059901 5.208-.145l2.2 1.464c.748913.4991125 1.331248 1.2110101 1.672 2.044l1.525 3.721-7.131 1.5z" fill="#f9eab0"/><path id="Shape" d="m34 47v6c.0032948 1.1032019.8967981 1.9967052 2 2h.03v1c-.0032948 1.1032019-.8967981 1.9967052-2 2h-32.03c-1.10320187-.0032948-1.9967052-.8967981-2-2v-46c.0032948-1.10320187.89679813-1.9967052 2-2h22.03l11.41 11.41c.3774773.3761733.5897587.8870877.59 1.42v21.24c-1.3031911 1.3094249-2.0333217 3.0825992-2.03 4.93z" fill="#df4d60"/><path id="Shape" d="m38.59 8h-14.56l7.07-7.07c.3751365-.37555409.8841815-.58657331 1.415-.58657331s1.0398635.21101922 1.415.58657331l5.36 5.36c.2871614.28480911.3744903.71455196.2212679 1.08885236s-.5168238.61945187-.9212679.62114764z" fill="#ff5364"/><path id="Shape" d="m28 39c0 5.5228475-4.4771525 10-10 10s-10-4.4771525-10-10c0-6.873 7.043-14.547 9.308-16.72.3868237-.3708033.9971763-.3708033 1.384 0 2.265 2.173 9.308 9.847 9.308 16.72z" fill="#4fba6f"/><path id="Shape" d="m18 46c-3.8641657-.0044086-6.9955914-3.1358343-7-7 0-.5522847.4477153-1 1-1s1 .4477153 1 1c.0033061 2.7600532 2.2399468 4.9966939 5 5 .5522847 0 1 .4477153 1 1s-.4477153 1-1 1z" fill="#fff"/><circle id="Oval" cx="7" cy="52" fill="#90bae1" r="2"/><circle id="Oval" cx="29" cy="23" fill="#90bae1" r="3"/><g fill="#f3d55b"><path id="Shape" d="m8 20c-.55228475 0-1-.4477153-1-1v-2c0-.5522847.44771525-1 1-1s1 .4477153 1 1v2c0 .5522847-.44771525 1-1 1z"/><path id="Shape" d="m8 26c-.55228475 0-1-.4477153-1-1v-2c0-.5522847.44771525-1 1-1s1 .4477153 1 1v2c0 .5522847-.44771525 1-1 1z"/><path id="Shape" d="m6 22h-2c-.55228475 0-1-.4477153-1-1s.44771525-1 1-1h2c.55228475 0 1 .4477153 1 1s-.44771525 1-1 1z"/><path id="Shape" d="m12 22h-2c-.55228475 0-1-.4477153-1-1s.44771525-1 1-1h2c.5522847 0 1 .4477153 1 1s-.4477153 1-1 1z"/></g><circle id="Oval" cx="31" cy="31" fill="#fff" r="1"/><circle id="Oval" cx="14" cy="53" fill="#fff" r="1"/><circle id="Oval" cx="6" cy="30" fill="#fff" r="1"/><path id="Shape" d="m41.09 44h-.09c-1.6548028.0049422-2.9950578 1.3451972-3 3v6c-.0030894 1.0916401-.8785313 1.9804135-1.97 2h-.03c-1.1032019-.0032948-1.9967052-.8967981-2-2v-6c-.0043759-3.5373723 2.6377762-6.5189228 6.15-6.94l2.558 1.648z" fill="#2980ba"/><path id="Shape" d="m6 13h-2c-.55228475 0-1-.4477153-1-1s.44771525-1 1-1h2c.55228475 0 1 .4477153 1 1s-.44771525 1-1 1z" fill="#fb7b76"/><path id="Shape" d="m22 13h-12c-.55228475 0-1-.4477153-1-1s.44771525-1 1-1h12c.5522847 0 1 .4477153 1 1s-.4477153 1-1 1z" fill="#fb7b76"/><path id="Shape" d="m57.99 39.46-4.04 17c-.2168643.901739-1.0225522 1.5380258-1.95 1.54h-6c-.9274478-.0019742-1.7331357-.638261-1.95-1.54l-.35-1.46-.46-1.97-.49-2.03-.47-1.97-.48-2.03-.47-1.97-.24-1.03-.94-3.94-.14-.6c-.140355-.593865-.0019102-1.2193158.3759599-1.6984706.3778701-.4791549.9538177-.7595831 1.5640401-.7615294h14.1c.6102224.0019463 1.18617.2823745 1.5640401.7615294.3778701.4791548.5163149 1.1046056.3759599 1.6984706z" fill="#3b97d3"/><path id="Shape" d="m48 46c0 .5522847-.4477153 1-1 1h-5.2l-.47-1.97c.0749406-.0204379.1523242-.0305314.23-.03h5.44c.5522847 0 1 .4477153 1 1z" fill="#9fc9d3"/><path id="Shape" d="m49 50c0 .5522847-.4477153 1-1 1h-5.25l-.47-1.97c.0749406-.0204379.1523242-.0305314.23-.03h5.49c.5522847 0 1 .4477153 1 1z" fill="#84b5cb"/><path id="Shape" d="m50 54c0 .5522847-.4477153 1-1 1h-5.3l-.46-1.97c.0749406-.0204379.1523242-.0305314.23-.03h5.53c.5522847 0 1 .4477153 1 1z" fill="#9fc9d3"/></g></g></svg>