<svg id="Hygiene_Icons" enable-background="new 0 0 256 256" height="512" viewBox="0 0 256 256" width="512" xmlns="http://www.w3.org/2000/svg"><g><g><path d="m142.384 48.539h-71.352c-8.26 0-14.956 6.696-14.956 14.956v178.533c0 5.507 4.464 9.971 9.971 9.971h123.908c5.507 0 9.971-4.464 9.971-9.971v-135.948c-.001-31.779-25.763-57.541-57.542-57.541zm-45.991 74.74c0 14.356-11.638 25.994-25.993 25.994v-85.473h25.993z" fill="#f4efed"/></g><g><g><path d="m65.075 242.029v-178.533c0-8.26 6.696-14.956 14.956-14.956h-9c-8.26 0-14.956 6.696-14.956 14.956v178.533c0 5.507 4.464 9.971 9.971 9.971h9c-5.507 0-9.971-4.464-9.971-9.971z" fill="#fff"/></g></g><g><g><path d="m142.384 48.539h-9c31.779 0 57.541 25.762 57.541 57.541v135.949c0 5.507-4.464 9.971-9.971 9.971h9c5.507 0 9.971-4.464 9.971-9.971v-135.949c0-31.779-25.762-57.541-57.541-57.541z" fill="#d6d1cf"/></g></g><g><path d="m146.987 188.559c-19.65 0-31.931-21.272-22.106-38.289l22.106-38.289 22.106 38.289c9.825 17.017-2.456 38.289-22.106 38.289z" fill="#526faa"/></g><g><path d="m84.074 37.152h45.847c3.145 0 5.694 2.549 5.694 5.694 0 3.145-2.549 5.694-5.694 5.694h-45.847c-3.145 0-5.694-2.549-5.694-5.694 0-3.145 2.549-5.694 5.694-5.694z" fill="#526faa"/></g><g><path d="m127.191 37.152h-40.388v-27.823c0-2.943 2.387-5.329 5.33-5.329h29.728c2.943 0 5.33 2.386 5.33 5.329z" fill="#526faa"/></g><g><path d="m121.861 4h-6.202c2.943 0 5.329 2.386 5.329 5.329v27.822h6.202v-27.822c.001-2.943-2.385-5.329-5.329-5.329z" fill="#34518c"/></g><g><path d="m92.133 4h6.202c-2.943 0-5.329 2.386-5.329 5.329v27.822h-6.202v-27.822c-.001-2.943 2.386-5.329 5.329-5.329z" fill="#708dc8"/></g><g><path d="m129.921 37.152h-7.235c3.144 0 5.694 2.549 5.694 5.694s-2.549 5.694-5.694 5.694h7.235c3.145 0 5.694-2.549 5.694-5.694s-2.55-5.694-5.694-5.694z" fill="#34518c"/></g><g><path d="m85.616 42.846c0-3.145 2.549-5.694 5.694-5.694h-7.236c-3.145 0-5.694 2.549-5.694 5.694s2.549 5.694 5.694 5.694h7.236c-3.145-.001-5.694-2.55-5.694-5.694z" fill="#708dc8"/></g><g><path d="m127.19 39.152h-40.386c-1.104 0-2-.896-2-2v-27.822c0-4.042 3.288-7.33 7.329-7.33h29.729c4.041 0 7.329 3.288 7.329 7.33v27.822c-.001 1.104-.896 2-2.001 2zm-38.386-4h36.387v-25.822c0-1.836-1.493-3.33-3.329-3.33h-29.729c-1.836 0-3.329 1.494-3.329 3.33z" fill="#690589"/></g><g><path d="m129.921 50.539h-45.848c-4.242 0-7.693-3.451-7.693-7.693s3.451-7.694 7.693-7.694h45.848c4.242 0 7.693 3.452 7.693 7.694s-3.451 7.693-7.693 7.693zm-45.848-11.387c-2.036 0-3.693 1.657-3.693 3.694s1.657 3.693 3.693 3.693h45.848c2.036 0 3.693-1.657 3.693-3.693 0-2.037-1.657-3.694-3.693-3.694z" fill="#690589"/></g><g><path d="m96.566 39.152c-1.104 0-2-.896-2-2v-25.733c0-1.104.896-2 2-2s2 .896 2 2v25.733c0 1.104-.895 2-2 2z" fill="#690589"/></g><g><path d="m117.428 39.152c-1.104 0-2-.896-2-2v-25.733c0-1.104.896-2 2-2 1.105 0 2 .896 2 2v25.733c0 1.104-.896 2-2 2z" fill="#690589"/></g><g><path d="m106.997 39.152c-1.104 0-2-.896-2-2v-25.733c0-1.104.896-2 2-2s2 .896 2 2v25.733c0 1.104-.895 2-2 2z" fill="#690589"/></g><g><path d="m189.954 254h-123.908c-6.601 0-11.971-5.37-11.971-11.971v-178.533c0-9.35 7.606-16.957 16.956-16.957h71.353c32.831 0 59.541 26.71 59.541 59.541v135.949c0 6.601-5.37 11.971-11.971 11.971zm-118.923-203.461c-7.144 0-12.956 5.813-12.956 12.957v178.534c0 4.395 3.575 7.971 7.971 7.971h123.908c4.395 0 7.971-3.576 7.971-7.971v-135.949c0-30.625-24.916-55.541-55.541-55.541h-71.353zm-.632 100.734c-1.104 0-2-.896-2-2v-85.473c0-1.104.896-2 2-2h25.993c1.104 0 2 .896 2 2v59.479c.001 15.435-12.557 27.994-27.993 27.994zm2-85.473v81.39c12.298-1.02 21.993-11.354 21.993-23.911v-57.479z" fill="#690589"/></g><g><path d="m146.986 190.559c-9.951 0-18.862-5.145-23.838-13.763s-4.976-18.908 0-27.526l22.106-38.289c.357-.619 1.018-1 1.732-1 .715 0 1.375.381 1.732 1l22.106 38.289c4.976 8.618 4.976 18.908 0 27.526-4.974 8.618-13.886 13.763-23.838 13.763zm0-74.579-20.373 35.289c-4.253 7.366-4.253 16.161-.001 23.526 4.253 7.365 11.869 11.763 20.374 11.763 8.506 0 16.122-4.397 20.375-11.763 4.252-7.365 4.252-16.16-.001-23.526z" fill="#690589"/></g><g><path d="m125.668 170.212 7.624 4.17-7.624 4.17-4.17 7.624-4.17-7.624-7.624-4.17 7.624-4.17 4.17-7.624z" fill="#f4efed"/></g><g><path d="m177.179 123.66 6.325 3.46-6.325 3.459-3.459 6.325-3.459-6.325-6.325-3.459 6.325-3.46 3.459-6.325z" fill="#f4efed"/></g><g><path d="m121.498 188.176c-.731 0-1.404-.399-1.755-1.04l-3.889-7.11-7.11-3.889c-.642-.351-1.04-1.024-1.04-1.755s.399-1.404 1.04-1.755l7.11-3.888 3.889-7.11c.351-.641 1.023-1.04 1.755-1.04.731 0 1.404.399 1.755 1.04l3.889 7.11 7.11 3.888c.641.351 1.04 1.024 1.04 1.755s-.398 1.404-1.04 1.755l-7.11 3.889-3.889 7.11c-.351.641-1.024 1.04-1.755 1.04zm-7.626-13.794 4.416 2.415c.335.184.611.459.795.795l2.415 4.416 2.415-4.416c.184-.335.46-.611.795-.795l4.416-2.415-4.416-2.415c-.335-.184-.611-.46-.795-.795l-2.415-4.416-2.415 4.416c-.184.335-.46.611-.795.795z" fill="#690589"/></g><g><path d="m173.72 138.904c-.731 0-1.404-.399-1.755-1.04l-3.178-5.811-5.811-3.178c-.641-.351-1.04-1.024-1.04-1.755s.398-1.404 1.04-1.755l5.811-3.178 3.178-5.811c.351-.642 1.023-1.041 1.755-1.041.73 0 1.403.399 1.755 1.04l3.179 5.811 5.811 3.178c.642.351 1.04 1.024 1.04 1.755s-.398 1.404-1.04 1.755l-5.811 3.178-3.179 5.812c-.351.641-1.024 1.04-1.755 1.04zm-5.616-11.784 3.117 1.704c.335.184.611.46.795.795l1.704 3.117 1.705-3.117c.184-.335.46-.611.795-.795l3.116-1.704-3.116-1.705c-.335-.183-.611-.459-.795-.794l-1.705-3.117-1.704 3.117c-.184.336-.46.612-.795.795z" fill="#690589"/></g><g><path d="m65.075 178.845c-1.105 0-2-.895-2-2v-12c0-1.104.896-2 2-2s2 .896 2 2v12c0 1.105-.895 2-2 2z" fill="#690589"/></g></g></svg>