<svg id="icons" enable-background="new 0 0 64 64" height="512" viewBox="0 0 64 64" width="512" xmlns="http://www.w3.org/2000/svg"><path d="m21 12c11.05 0 20 8.95 20 20 0 11.04-8.95 20-20 20-11.04 0-20-8.96-20-20 0-11.05 8.96-20 20-20zm10 20c0-5.52-4.48-10-10-10-5.51 0-10 4.48-10 10 0 5.521 4.49 10 10 10 5.52 0 10-4.479 10-10z" fill="#e6e9ed"/><path d="m21 12c-.507 0-1.004.039-1.501.076 10.345.77 18.498 9.381 18.498 19.924 0 10.533-8.153 19.153-18.498 19.924.497.037.994.076 1.501.076 11.05 0 20-8.96 20-20 0-11.05-8.95-20-20-20z" fill="#ccd1d9"/><path d="m21 22c5.52 0 10 4.48 10 10 0 5.521-4.48 10-10 10-5.51 0-10-4.479-10-10 0-5.52 4.49-10 10-10z" fill="#ccd1d9"/><path d="m56 14.99v5.22c-.641-.14-1.311-.22-2-.22-.69 0-1.36.08-2 .22v-5.22z" fill="#ed5565"/><path d="m50 34h8v10h-8z" fill="#e6e9ed"/><path d="m56 20.21c4.01.91 7 4.5 7 8.78 0 1.49-.36 2.89-.99 4.13h-.01v.87c0 .56.45 1 1 1v15.01c0 1.101-.891 2-2 2h-14c-1.101 0-2-.899-2-2v-15.01c.56 0 1-.44 1-1v-.87c-.63-1.24-1-2.64-1-4.13 0-4.28 2.99-7.87 7-8.78.64-.14 1.31-.22 2-.22.689 0 1.359.08 2 .22zm2 23.79v-10h-8v10z" fill="#ffce54"/><path d="m62 33.99v-.87h.01c.63-1.24.99-2.64.99-4.13 0-4.28-2.99-7.87-7-8.78-.641-.14-1.311-.22-2-.22-.516 0-1.014.057-1.502.138.167.027.336.047.499.082 4.01.91 7 4.5 7 8.78 0 1.49-.36 2.89-.99 4.13h-.01v.87c0 .56.45 1 1 1v15.01c0 1.101-.891 2-2 2h3.003c1.109 0 2-.899 2-2v-15.01c-.55 0-1-.44-1-1z" fill="#f6bb42"/><path d="m21 53c-11.579 0-21-9.421-21-21s9.421-21 21-21 21 9.421 21 21-9.421 21-21 21zm0-40c-10.477 0-19 8.523-19 19s8.523 19 19 19 19-8.523 19-19-8.523-19-19-19z"/><path d="m21 43c-6.065 0-11-4.935-11-11s4.935-11 11-11 11 4.935 11 11-4.935 11-11 11zm0-20c-4.963 0-9 4.037-9 9s4.037 9 9 9 9-4.037 9-9-4.037-9-9-9z"/><path d="m46.001 34.121c-.362 0-.712-.197-.89-.541-.726-1.407-1.111-2.993-1.111-4.586 0-5.514 4.486-10 10-10s10 4.486 10 10c0 1.592-.384 3.177-1.109 4.583-.253.49-.854.681-1.348.43-.49-.253-.683-.856-.43-1.348.589-1.139.887-2.373.887-3.665 0-4.411-3.589-8-8-8s-8 3.589-8 8c0 1.293.299 2.526.889 3.668.253.49.061 1.094-.43 1.348-.146.075-.304.111-.458.111z"/><path d="m45 35.994c-.553 0-1-.447-1-1s.447-1 1-1c0-.553.447-1 1-1s1 .447 1 1c0 1.103-.897 2-2 2z"/><path d="m46 34.994c-.553 0-1-.447-1-1v-.873c0-.553.447-1 1-1s1 .447 1 1v.873c0 .553-.447 1-1 1z"/><path d="m63 35.994c-1.103 0-2-.897-2-2 0-.553.447-1 1-1s1 .447 1 1v.002c.553 0 1 .446 1 .999 0 .552-.447.999-1 .999z"/><path d="m62 34.994c-.553 0-1-.447-1-1v-.873c0-.553.447-1 1-1s1 .447 1 1v.873c0 .553-.447 1-1 1z"/><path d="m45 50.999c-.553 0-1-.447-1-1v-15.005c0-.553.447-1 1-1s1 .447 1 1v15.005c0 .553-.447 1-1 1z"/><path d="m63 51c-.553 0-1-.447-1-1v-15.006c0-.553.447-1 1-1s1 .447 1 1v15.006c0 .553-.447 1-1 1z"/><path d="m47 52.999c-1.654 0-3-1.346-3-3 0-.553.447-1 1-1s1 .447 1 1c0 .552.448 1 1 1 .553 0 1 .447 1 1s-.447 1-1 1z"/><path d="m61 53c-.553 0-1-.447-1-1s.447-1 1-1c.552 0 1-.448 1-1 0-.553.447-1 1-1s1 .447 1 1c0 1.654-1.346 3-3 3z"/><path d="m61 52.999h-14c-.553 0-1-.447-1-1s.447-1 1-1h14c.553 0 1 .447 1 1s-.447 1-1 1z"/><path d="m58 44.998h-8c-.553 0-1-.447-1-1v-10.001c0-.553.447-1 1-1h8c.553 0 1 .447 1 1v10.001c0 .553-.447 1-1 1zm-7-2h6v-8.001h-6z"/><path d="m52 21.217c-.553 0-1-.447-1-1v-5.221c0-.553.447-1 1-1s1 .447 1 1v5.221c0 .553-.447 1-1 1z"/><path d="m56 21.218c-.553 0-1-.447-1-1v-5.222c0-.553.447-1 1-1s1 .447 1 1v5.222c0 .553-.447 1-1 1z"/><path d="m57 15.996h-6c-.553 0-1-.447-1-1s.447-1 1-1h6c.553 0 1 .447 1 1s-.447 1-1 1z"/></svg>