<svg id="Layer_1" enable-background="new 0 0 512 512" height="512" viewBox="0 0 512 512" width="512" xmlns="http://www.w3.org/2000/svg"><g><path d="m344 193.814v-49.814c0-8.836-7.163-16-16-16h-16v-48c0-8.836-7.163-16-16-16h-24v-32h16c8.837 0 16-7.164 16-16s-7.163-16-16-16h-128c-4.243 0-8.313 1.686-11.313 4.687l-16 16c-6.249 6.248-6.249 16.379 0 22.627 6.247 6.248 16.379 6.249 22.627 0l11.313-11.314h73.373v32h-24c-8.837 0-16 7.164-16 16v48h-16c-8.837 0-16 7.164-16 16v49.814c-32.022 7.298-56 35.985-56 70.186v200c0 26.467 21.532 48 48 48h192c26.468 0 48-21.533 48-48v-200c0-34.201-23.978-62.888-56-70.186zm-112-97.814h48v32h-48zm-32 64h112v32h-112zm168 304c0 8.822-7.178 16-16 16h-192c-8.822 0-16-7.178-16-16v-200c0-22.056 17.944-40 40-40h144c22.056 0 40 17.944 40 40z"/><path d="m266.182 282.658c-5.91-4.878-14.453-4.878-20.363 0-4.691 3.869-45.819 38.909-45.819 77.342 0 30.878 25.121 56 56 56s56-25.122 56-56c0-38.433-41.128-73.473-45.818-77.342zm-10.182 101.342c-13.233 0-24-10.767-24-24 0-14.367 13.305-31.708 23.999-42.964 10.701 11.262 24.001 28.6 24.001 42.964 0 13.233-10.767 24-24 24z"/></g></svg>